<svg id="svg2" xmlns="http://www.w3.org/2000/svg" viewBox="0 0 722.45 175.51"><defs><style>.cls-1,.cls-4{fill:#003594;}.cls-2,.cls-3{fill:#ffb81c;}.cls-3,.cls-4{font-size:124px;font-family:AvenirLTStd-Black, Avenir LT Std;font-weight:800;}</style></defs><g id="layer1"><g id="g2010"><path id="path2012" class="cls-1" d="M654.83,175.51a67.85,67.85,0,0,0,67.62-67.62V67.62A67.83,67.83,0,0,0,654.83,0H67.62A67.85,67.85,0,0,0,0,67.61v40.27a67.86,67.86,0,0,0,67.62,67.61"/></g><g id="g2014"><path id="path2016" class="cls-2" d="M531.49,107.88V67.61a54.74,54.74,0,0,1,54.7-54.69h68.65A54.3,54.3,0,0,1,709,67.61v40.27c0,29.93-24.25,54.7-54.19,54.7H503.61a67,67,0,0,0,27.88-54.7"/></g><text class="cls-3" transform="translate(39.8 129.07)">Panther</text><text class="cls-4" transform="translate(562.78 129.07)">Fi</text></g></svg>